<svg id="visual" viewBox="0 0 1500 800" width="1500" height="800" xmlns="http://www.w3.org/2000/svg" xmlns:xlink="http://www.w3.org/1999/xlink" version="1.1"><rect x="0" y="0" width="1500" height="800" fill="#37626D"></rect><path d="M0 527L35.7 530.7C71.3 534.3 142.7 541.7 214.2 549.8C285.7 558 357.3 567 428.8 566C500.3 565 571.7 554 643 552.8C714.3 551.7 785.7 560.3 857 563.8C928.3 567.3 999.7 565.7 1071.2 549.8C1142.7 534 1214.3 504 1285.8 496C1357.3 488 1428.7 502 1464.3 509L1500 516L1500 801L1464.3 801C1428.7 801 1357.3 801 1285.8 801C1214.3 801 1142.7 801 1071.2 801C999.7 801 928.3 801 857 801C785.7 801 714.3 801 643 801C571.7 801 500.3 801 428.8 801C357.3 801 285.7 801 214.2 801C142.7 801 71.3 801 35.7 801L0 801Z" fill="#fa7268"></path><path d="M0 526L35.7 544.5C71.3 563 142.7 600 214.2 613.8C285.7 627.7 357.3 618.3 428.8 610.3C500.3 602.3 571.7 595.7 643 597.8C714.3 600 785.7 611 857 618.8C928.3 626.7 999.7 631.3 1071.2 633.3C1142.7 635.3 1214.3 634.7 1285.8 620.8C1357.3 607 1428.7 580 1464.3 566.5L1500 553L1500 801L1464.3 801C1428.7 801 1357.3 801 1285.8 801C1214.3 801 1142.7 801 1071.2 801C999.7 801 928.3 801 857 801C785.7 801 714.3 801 643 801C571.7 801 500.3 801 428.8 801C357.3 801 285.7 801 214.2 801C142.7 801 71.3 801 35.7 801L0 801Z" fill="#f87d74"></path><path d="M0 629L35.7 623.8C71.3 618.7 142.7 608.3 214.2 609.3C285.7 610.3 357.3 622.7 428.8 627.2C500.3 631.7 571.7 628.3 643 627.7C714.3 627 785.7 629 857 626C928.3 623 999.7 615 1071.2 614.3C1142.7 613.7 1214.3 620.3 1285.8 629.7C1357.3 639 1428.7 651 1464.3 657L1500 663L1500 801L1464.3 801C1428.7 801 1357.3 801 1285.8 801C1214.3 801 1142.7 801 1071.2 801C999.7 801 928.3 801 857 801C785.7 801 714.3 801 643 801C571.7 801 500.3 801 428.8 801C357.3 801 285.7 801 214.2 801C142.7 801 71.3 801 35.7 801L0 801Z" fill="#f6887f"></path><path d="M0 652L35.7 657.2C71.3 662.3 142.7 672.7 214.2 679.3C285.7 686 357.3 689 428.8 689C500.3 689 571.7 686 643 687.8C714.3 689.7 785.7 696.3 857 696.2C928.3 696 999.7 689 1071.2 681C1142.7 673 1214.3 664 1285.8 670.7C1357.3 677.3 1428.7 699.7 1464.3 710.8L1500 722L1500 801L1464.3 801C1428.7 801 1357.3 801 1285.8 801C1214.3 801 1142.7 801 1071.2 801C999.7 801 928.3 801 857 801C785.7 801 714.3 801 643 801C571.7 801 500.3 801 428.8 801C357.3 801 285.7 801 214.2 801C142.7 801 71.3 801 35.7 801L0 801Z" fill="#f3928b"></path><path d="M0 738L35.7 740.2C71.3 742.3 142.7 746.7 214.2 748.3C285.7 750 357.3 749 428.8 740.5C500.3 732 571.7 716 643 710.7C714.3 705.3 785.7 710.7 857 721C928.3 731.3 999.7 746.7 1071.2 754.7C1142.7 762.7 1214.3 763.3 1285.8 760.8C1357.3 758.3 1428.7 752.7 1464.3 749.8L1500 747L1500 801L1464.3 801C1428.7 801 1357.3 801 1285.8 801C1214.3 801 1142.7 801 1071.2 801C999.7 801 928.3 801 857 801C785.7 801 714.3 801 643 801C571.7 801 500.3 801 428.8 801C357.3 801 285.7 801 214.2 801C142.7 801 71.3 801 35.7 801L0 801Z" fill="#f09c96"></path></svg>