<svg id="visual" viewBox="0 0 900 600" width="900" height="600" xmlns="http://www.w3.org/2000/svg" xmlns:xlink="http://www.w3.org/1999/xlink" version="1.1"><g stroke-width="1" stroke-linejoin="bevel"><path d="M472 260L506 206L403 200Z" fill="#305660" stroke="#F09C96"></path><path d="M506 206L473 135L403 200Z" fill="#1d343b" stroke="#F09C96"></path><path d="M403 200L393 283L472 260Z" fill="#1a2f35" stroke="#F09C96"></path><path d="M327 126L322 198L403 200Z" fill="#294a54" stroke="#F09C96"></path><path d="M403 200L322 198L393 283Z" fill="#335c67" stroke="#F09C96"></path><path d="M473 135L423 77L403 200Z" fill="#17292f" stroke="#F09C96"></path><path d="M423 77L327 126L403 200Z" fill="#203941" stroke="#F09C96"></path><path d="M586 312L615 219L506 206Z" fill="#233f47" stroke="#F09C96"></path><path d="M506 206L585 79L473 135Z" fill="#1d343b" stroke="#F09C96"></path><path d="M473 135L478 0L423 77Z" fill="#335c67" stroke="#F09C96"></path><path d="M586 312L506 206L472 260Z" fill="#1a2f35" stroke="#F09C96"></path><path d="M560 365L586 312L472 260Z" fill="#305660" stroke="#F09C96"></path><path d="M293 307L406 382L393 283Z" fill="#17292f" stroke="#F09C96"></path><path d="M393 283L406 382L472 260Z" fill="#203941" stroke="#F09C96"></path><path d="M615 219L585 79L506 206Z" fill="#17292f" stroke="#F09C96"></path><path d="M528 402L560 365L472 260Z" fill="#142429" stroke="#F09C96"></path><path d="M212 284L293 307L322 198Z" fill="#1d343b" stroke="#F09C96"></path><path d="M322 198L293 307L393 283Z" fill="#203941" stroke="#F09C96"></path><path d="M406 382L528 402L472 260Z" fill="#1d343b" stroke="#F09C96"></path><path d="M585 79L478 0L473 135Z" fill="#294a54" stroke="#F09C96"></path><path d="M423 77L362 0L327 126Z" fill="#1d343b" stroke="#F09C96"></path><path d="M586 312L672 235L615 219Z" fill="#305660" stroke="#F09C96"></path><path d="M615 219L707 109L585 79Z" fill="#2d505a" stroke="#F09C96"></path><path d="M732 267L672 235L586 312Z" fill="#335c67" stroke="#F09C96"></path><path d="M478 0L362 0L423 77Z" fill="#305660" stroke="#F09C96"></path><path d="M362 0L315 0L327 126Z" fill="#1a2f35" stroke="#F09C96"></path><path d="M167 207L212 284L322 198Z" fill="#2d505a" stroke="#F09C96"></path><path d="M167 207L322 198L180 118Z" fill="#26454d" stroke="#F09C96"></path><path d="M421 509L461 488L406 382Z" fill="#335c67" stroke="#F09C96"></path><path d="M707 109L607 0L585 79Z" fill="#17292f" stroke="#F09C96"></path><path d="M585 79L607 0L478 0Z" fill="#26454d" stroke="#F09C96"></path><path d="M672 235L707 109L615 219Z" fill="#17292f" stroke="#F09C96"></path><path d="M406 382L461 488L528 402Z" fill="#2d505a" stroke="#F09C96"></path><path d="M712 439L586 312L560 365Z" fill="#1a2f35" stroke="#F09C96"></path><path d="M712 439L732 267L586 312Z" fill="#294a54" stroke="#F09C96"></path><path d="M273 424L406 382L293 307Z" fill="#142429" stroke="#F09C96"></path><path d="M171 389L273 424L293 307Z" fill="#142429" stroke="#F09C96"></path><path d="M597 478L560 365L528 402Z" fill="#294a54" stroke="#F09C96"></path><path d="M672 235L794 211L707 109Z" fill="#233f47" stroke="#F09C96"></path><path d="M180 118L322 198L327 126Z" fill="#26454d" stroke="#F09C96"></path><path d="M212 284L171 389L293 307Z" fill="#305660" stroke="#F09C96"></path><path d="M315 0L180 118L327 126Z" fill="#233f47" stroke="#F09C96"></path><path d="M273 424L421 509L406 382Z" fill="#1a2f35" stroke="#F09C96"></path><path d="M499 600L597 478L461 488Z" fill="#203941" stroke="#F09C96"></path><path d="M461 488L597 478L528 402Z" fill="#1d343b" stroke="#F09C96"></path><path d="M95 93L132 237L167 207Z" fill="#26454d" stroke="#F09C96"></path><path d="M167 207L132 237L212 284Z" fill="#203941" stroke="#F09C96"></path><path d="M794 211L771 108L707 109Z" fill="#26454d" stroke="#F09C96"></path><path d="M707 109L733 0L607 0Z" fill="#203941" stroke="#F09C96"></path><path d="M106 309L171 389L212 284Z" fill="#233f47" stroke="#F09C96"></path><path d="M273 424L282 518L421 509Z" fill="#2d505a" stroke="#F09C96"></path><path d="M820 272L794 211L732 267Z" fill="#17292f" stroke="#F09C96"></path><path d="M732 267L794 211L672 235Z" fill="#2d505a" stroke="#F09C96"></path><path d="M597 478L712 439L560 365Z" fill="#2d505a" stroke="#F09C96"></path><path d="M315 0L177 0L180 118Z" fill="#305660" stroke="#F09C96"></path><path d="M180 118L95 93L167 207Z" fill="#233f47" stroke="#F09C96"></path><path d="M771 108L733 0L707 109Z" fill="#203941" stroke="#F09C96"></path><path d="M162 461L282 518L273 424Z" fill="#142429" stroke="#F09C96"></path><path d="M132 237L106 309L212 284Z" fill="#2d505a" stroke="#F09C96"></path><path d="M0 321L106 309L132 237Z" fill="#142429" stroke="#F09C96"></path><path d="M818 378L820 272L732 267Z" fill="#294a54" stroke="#F09C96"></path><path d="M900 71L790 0L771 108Z" fill="#1d343b" stroke="#F09C96"></path><path d="M126 0L95 93L180 118Z" fill="#335c67" stroke="#F09C96"></path><path d="M171 389L162 461L273 424Z" fill="#1a2f35" stroke="#F09C96"></path><path d="M108 389L162 461L171 389Z" fill="#305660" stroke="#F09C96"></path><path d="M0 321L108 389L106 309Z" fill="#1a2f35" stroke="#F09C96"></path><path d="M106 309L108 389L171 389Z" fill="#233f47" stroke="#F09C96"></path><path d="M177 0L126 0L180 118Z" fill="#335c67" stroke="#F09C96"></path><path d="M409 600L499 600L421 509Z" fill="#142429" stroke="#F09C96"></path><path d="M421 509L499 600L461 488Z" fill="#17292f" stroke="#F09C96"></path><path d="M597 478L729 533L712 439Z" fill="#203941" stroke="#F09C96"></path><path d="M319 600L409 600L421 509Z" fill="#203941" stroke="#F09C96"></path><path d="M319 600L421 509L282 518Z" fill="#335c67" stroke="#F09C96"></path><path d="M900 71L771 108L794 211Z" fill="#2d505a" stroke="#F09C96"></path><path d="M771 108L790 0L733 0Z" fill="#294a54" stroke="#F09C96"></path><path d="M801 463L818 378L712 439Z" fill="#1d343b" stroke="#F09C96"></path><path d="M712 439L818 378L732 267Z" fill="#294a54" stroke="#F09C96"></path><path d="M499 600L576 600L597 478Z" fill="#305660" stroke="#F09C96"></path><path d="M221 600L319 600L282 518Z" fill="#1d343b" stroke="#F09C96"></path><path d="M684 600L729 533L597 478Z" fill="#203941" stroke="#F09C96"></path><path d="M729 533L801 463L712 439Z" fill="#142429" stroke="#F09C96"></path><path d="M900 272L900 226L820 272Z" fill="#203941" stroke="#F09C96"></path><path d="M820 272L900 226L794 211Z" fill="#233f47" stroke="#F09C96"></path><path d="M900 272L820 272L900 362Z" fill="#1d343b" stroke="#F09C96"></path><path d="M900 362L820 272L818 378Z" fill="#335c67" stroke="#F09C96"></path><path d="M729 533L775 600L801 463Z" fill="#17292f" stroke="#F09C96"></path><path d="M576 600L684 600L597 478Z" fill="#17292f" stroke="#F09C96"></path><path d="M67 600L221 600L162 461Z" fill="#1d343b" stroke="#F09C96"></path><path d="M162 461L221 600L282 518Z" fill="#26454d" stroke="#F09C96"></path><path d="M0 101L0 165L95 93Z" fill="#335c67" stroke="#F09C96"></path><path d="M95 93L0 165L132 237Z" fill="#2d505a" stroke="#F09C96"></path><path d="M0 0L0 101L95 93Z" fill="#1a2f35" stroke="#F09C96"></path><path d="M0 165L0 321L132 237Z" fill="#17292f" stroke="#F09C96"></path><path d="M108 389L61 498L162 461Z" fill="#26454d" stroke="#F09C96"></path><path d="M900 226L900 71L794 211Z" fill="#1d343b" stroke="#F09C96"></path><path d="M900 477L818 378L801 463Z" fill="#203941" stroke="#F09C96"></path><path d="M900 477L900 362L818 378Z" fill="#142429" stroke="#F09C96"></path><path d="M0 412L61 498L108 389Z" fill="#2d505a" stroke="#F09C96"></path><path d="M900 71L900 0L790 0Z" fill="#294a54" stroke="#F09C96"></path><path d="M0 321L0 412L108 389Z" fill="#1a2f35" stroke="#F09C96"></path><path d="M126 0L0 0L95 93Z" fill="#2d505a" stroke="#F09C96"></path><path d="M684 600L775 600L729 533Z" fill="#2d505a" stroke="#F09C96"></path><path d="M900 600L900 477L801 463Z" fill="#2d505a" stroke="#F09C96"></path><path d="M61 498L67 600L162 461Z" fill="#305660" stroke="#F09C96"></path><path d="M0 527L67 600L61 498Z" fill="#294a54" stroke="#F09C96"></path><path d="M0 412L0 527L61 498Z" fill="#2d505a" stroke="#F09C96"></path><path d="M775 600L900 600L801 463Z" fill="#294a54" stroke="#F09C96"></path><path d="M0 527L0 600L67 600Z" fill="#1a2f35" stroke="#F09C96"></path></g></svg>