<svg id="visual" viewBox="0 0 900 600" width="900" height="600" xmlns="http://www.w3.org/2000/svg" xmlns:xlink="http://www.w3.org/1999/xlink" version="1.1"><rect x="0" y="0" width="900" height="600" fill="#002233"></rect><path d="M0 429L21.5 426.2C43 423.3 86 417.7 128.8 433.5C171.7 449.3 214.3 486.7 257.2 481.3C300 476 343 428 385.8 406C428.7 384 471.3 388 514.2 400.5C557 413 600 434 642.8 441.2C685.7 448.3 728.3 441.7 771.2 431.8C814 422 857 409 878.5 402.5L900 396L900 601L878.5 601C857 601 814 601 771.2 601C728.3 601 685.7 601 642.8 601C600 601 557 601 514.2 601C471.3 601 428.7 601 385.8 601C343 601 300 601 257.2 601C214.3 601 171.7 601 128.8 601C86 601 43 601 21.5 601L0 601Z" fill="#ff004d" stroke-linecap="round" stroke-linejoin="miter"></path></svg>